<svg width="123" height="24" viewBox="0 0 123 24" fill="none" xmlns="http://www.w3.org/2000/svg">
<path d="M8.61808 12.4464C12.6301 12.2951 15.211 10.037 15.211 6.64393C15.211 3.25092 12.432 0.818184 8.11978 0.818184H0L2.86844 3.25674H8.02395C10.6368 3.25674 12.1381 4.74083 12.1381 6.70795C12.1381 8.82059 10.6368 10.1301 7.99201 10.1301H2.86844L2.78539 10.1766L4.83609 12.4755H4.85526L12.8537 21.4615H16.7379L8.6117 12.4522L8.61808 12.4464Z" fill="white"/>
<path d="M26.8016 21.4615C24.6063 21.4615 22.943 20.9033 21.8116 19.7868C20.6802 18.6703 20.1145 17.1507 20.1145 15.2278C20.1145 14.2509 20.258 13.3748 20.5451 12.5994C20.8491 11.8086 21.2712 11.1418 21.8116 10.5991C22.3689 10.0408 23.0359 9.62216 23.8127 9.34304C24.6063 9.04841 25.4929 8.9011 26.4723 8.9011C27.4517 8.9011 28.3298 9.04841 29.1066 9.34304C29.8833 9.62216 30.5419 10.0253 31.0823 10.5526C31.6226 11.0798 32.0364 11.7233 32.3234 12.4831C32.6274 13.2275 32.7794 14.0648 32.7794 14.9952V16.0187H23.838V16.228C23.838 17.0033 24.0997 17.6314 24.6232 18.1121C25.1467 18.5773 25.915 18.8099 26.9282 18.8099C27.705 18.8099 28.372 18.6781 28.9293 18.4145C29.4865 18.1353 29.9678 17.7709 30.373 17.3212L32.3994 19.3449C31.8928 19.9186 31.1836 20.4148 30.2717 20.8335C29.3599 21.2522 28.2031 21.4615 26.8016 21.4615ZM26.4976 11.3667C25.687 11.3667 25.0369 11.5993 24.5472 12.0645C24.0744 12.5142 23.838 13.1267 23.838 13.902V14.0881H29.1066V13.902C29.1066 13.1112 28.8702 12.4909 28.3973 12.0412C27.9414 11.5915 27.3082 11.3667 26.4976 11.3667Z" fill="white"/>
<path d="M36.1562 21.4615V9.45935H39.905V11.6458H40.0569C40.2089 11.3046 40.3947 10.9868 40.6142 10.6921C40.8337 10.3975 41.0955 10.1416 41.3994 9.92455C41.7203 9.69195 42.0833 9.51363 42.4886 9.38957C42.9108 9.25001 43.3836 9.18023 43.9071 9.18023C44.5319 9.18023 45.106 9.28103 45.6295 9.48261C46.153 9.66869 46.6004 9.95557 46.972 10.3432C47.3435 10.7309 47.6305 11.2039 47.8332 11.7621C48.0527 12.3203 48.1624 12.9639 48.1624 13.6927V21.4615H44.4137V14.1579C44.4137 12.6072 43.6791 11.8319 42.21 11.8319C41.9229 11.8319 41.6358 11.8706 41.3488 11.9482C41.0786 12.0102 40.8337 12.1188 40.6142 12.2738C40.3947 12.4134 40.2174 12.5917 40.0823 12.8088C39.9641 13.0259 39.905 13.2818 39.905 13.5764V21.4615H36.1562Z" fill="white"/>
<path d="M51.5391 21.4615V5.22603H62.6842V6.92401H53.6668V12.3901H61.9243V14.0881H53.6668V21.4615H51.5391Z" fill="white"/>
<path d="M71.988 21.4615C71.0761 21.4615 70.2487 21.3142 69.5057 21.0196C68.7795 20.725 68.1547 20.3063 67.6313 19.7635C67.1247 19.2053 66.7363 18.5463 66.4661 17.7864C66.1959 17.0111 66.0608 16.1427 66.0608 15.1813C66.0608 14.2354 66.1959 13.3748 66.4661 12.5994C66.7363 11.8241 67.1247 11.1651 67.6313 10.6223C68.1547 10.0641 68.7795 9.63767 69.5057 9.34304C70.2487 9.04841 71.0761 8.9011 71.988 8.9011C72.8998 8.9011 73.7188 9.04841 74.445 9.34304C75.188 9.63767 75.8128 10.0641 76.3194 10.6223C76.8428 11.1651 77.2397 11.8241 77.5099 12.5994C77.78 13.3748 77.9151 14.2354 77.9151 15.1813C77.9151 16.1427 77.78 17.0111 77.5099 17.7864C77.2397 18.5463 76.8428 19.2053 76.3194 19.7635C75.8128 20.3063 75.188 20.725 74.445 21.0196C73.7188 21.3142 72.8998 21.4615 71.988 21.4615ZM71.988 19.8566C73.1194 19.8566 74.0312 19.5464 74.7236 18.9262C75.4159 18.3059 75.7621 17.3445 75.7621 16.0419V14.3207C75.7621 13.0181 75.4159 12.0567 74.7236 11.4364C74.0312 10.8162 73.1194 10.506 71.988 10.506C70.8566 10.506 69.9447 10.8162 69.2524 11.4364C68.56 12.0567 68.2138 13.0181 68.2138 14.3207V16.0419C68.2138 17.3445 68.56 18.3059 69.2524 18.9262C69.9447 19.5464 70.8566 19.8566 71.988 19.8566Z" fill="white"/>
<path d="M81.2917 19.8798H85.1165V11.041H81.2917V9.45932H87.1429V12.4831H87.2695C87.5397 11.5372 88.0463 10.8006 88.7893 10.2734C89.5492 9.73068 90.5117 9.45932 91.6769 9.45932H93.5006V11.3201H91.0436C89.8785 11.3201 88.9328 11.6303 88.2067 12.2505C87.4975 12.8708 87.1429 13.6849 87.1429 14.6928V19.8798H92.2088V21.4615H81.2917V19.8798Z" fill="white"/>
<path d="M102.804 21.4615C101.859 21.4615 101.014 21.3142 100.271 21.0196C99.5453 20.7094 98.9289 20.283 98.4224 19.7403C97.9158 19.1975 97.5274 18.5385 97.2572 17.7632C97.0039 16.9878 96.8772 16.1272 96.8772 15.1813C96.8772 14.2354 97.0123 13.3748 97.2825 12.5994C97.5527 11.8241 97.9411 11.1651 98.4477 10.6223C98.9543 10.0641 99.5706 9.63767 100.297 9.34304C101.023 9.04841 101.85 8.9011 102.779 8.9011C104.046 8.9011 105.076 9.15696 105.869 9.66868C106.663 10.1804 107.246 10.8472 107.617 11.669L105.996 12.4599C105.76 11.8396 105.363 11.3589 104.805 11.0178C104.265 10.6766 103.59 10.506 102.779 10.506C102.188 10.506 101.656 10.5991 101.183 10.7852C100.727 10.9557 100.339 11.2038 100.018 11.5295C99.6973 11.8551 99.4524 12.2428 99.2836 12.6925C99.1316 13.1422 99.0556 13.6306 99.0556 14.1579V16.2048C99.0556 16.732 99.1316 17.2204 99.2836 17.6701C99.4524 18.1198 99.6973 18.5075 100.018 18.8331C100.339 19.1588 100.736 19.4146 101.209 19.6007C101.681 19.7713 102.222 19.8566 102.83 19.8566C103.708 19.8566 104.434 19.6705 105.008 19.2983C105.582 18.9262 106.038 18.4145 106.376 17.7632L107.82 18.6703C107.431 19.4767 106.823 20.1435 105.996 20.6707C105.185 21.1979 104.122 21.4615 102.804 21.4615Z" fill="white"/>
<path d="M117.326 21.4615C116.381 21.4615 115.528 21.3142 114.768 21.0196C114.025 20.725 113.383 20.3063 112.843 19.7635C112.319 19.2053 111.914 18.5463 111.627 17.7864C111.34 17.0111 111.196 16.1505 111.196 15.2046C111.196 14.2432 111.34 13.3748 111.627 12.5994C111.931 11.8241 112.345 11.1651 112.868 10.6223C113.392 10.0641 114.016 9.63767 114.743 9.34304C115.486 9.04841 116.305 8.9011 117.199 8.9011C118.078 8.9011 118.871 9.04841 119.58 9.34304C120.307 9.63767 120.923 10.0486 121.43 10.5758C121.936 11.0875 122.325 11.7001 122.595 12.4134C122.865 13.1267 123 13.9098 123 14.7626V15.6465H113.324V16.2048C113.324 16.732 113.417 17.2204 113.603 17.6701C113.788 18.1198 114.05 18.5075 114.388 18.8331C114.743 19.1588 115.165 19.4146 115.654 19.6007C116.161 19.7713 116.718 19.8566 117.326 19.8566C118.204 19.8566 118.964 19.6705 119.606 19.2983C120.248 18.9262 120.737 18.4145 121.075 17.7632L122.569 18.6936C122.181 19.4999 121.531 20.1667 120.619 20.6939C119.724 21.2057 118.626 21.4615 117.326 21.4615ZM117.199 10.4363C116.642 10.4363 116.127 10.5293 115.654 10.7154C115.182 10.9015 114.768 11.1573 114.413 11.483C114.075 11.8086 113.805 12.1963 113.603 12.646C113.417 13.0802 113.324 13.5609 113.324 14.0881V14.2509H120.822V13.995C120.822 13.4678 120.729 12.9871 120.543 12.5529C120.374 12.1187 120.129 11.7466 119.808 11.4364C119.504 11.1108 119.125 10.8627 118.669 10.6921C118.23 10.5215 117.74 10.4363 117.199 10.4363Z" fill="white"/>
</svg>
