<svg width="117" height="20" viewBox="0 0 117 20" fill="none" xmlns="http://www.w3.org/2000/svg">
<path d="M8.19769 11.2197C12.014 11.0785 14.469 8.97038 14.469 5.80279C14.469 2.63523 11.8256 0.364136 7.72369 0.364136H0L2.72851 2.64066H7.63254C10.118 2.64066 11.546 4.02614 11.546 5.86256C11.546 7.83483 10.118 9.05731 7.60216 9.05731H2.72851L2.64951 9.10078L4.60019 11.2469H4.61842L12.2266 19.6359H15.9214L8.19161 11.2252L8.19769 11.2197Z" fill="black"/>
<path d="M25.4941 19.6358C23.406 19.6358 21.8238 19.1147 20.7476 18.0724C19.6714 17.0301 19.1333 15.6114 19.1333 13.8163C19.1333 12.9043 19.2698 12.0864 19.5429 11.3626C19.832 10.6243 20.2336 10.0018 20.7476 9.49514C21.2777 8.97399 21.9122 8.58312 22.651 8.32255C23.406 8.0475 24.2493 7.90997 25.1809 7.90997C26.1126 7.90997 26.9478 8.0475 27.6867 8.32255C28.4256 8.58312 29.052 8.95951 29.5661 9.45171C30.0801 9.9439 30.4736 10.5447 30.7467 11.254C31.0358 11.9489 31.1804 12.7306 31.1804 13.5992V14.5546H22.6751V14.7501C22.6751 15.4739 22.9241 16.0602 23.4221 16.5089C23.92 16.9432 24.6509 17.1604 25.6146 17.1604C26.3535 17.1604 26.988 17.0373 27.5181 16.7912C28.0481 16.5307 28.5059 16.1905 28.8914 15.7706L30.819 17.6598C30.3371 18.1954 29.6624 18.6587 28.795 19.0495C27.9277 19.4404 26.8274 19.6358 25.4941 19.6358ZM25.205 10.2117C24.434 10.2117 23.8156 10.4289 23.3498 10.8632C22.9 11.283 22.6751 11.8548 22.6751 12.5786V12.7523H27.6867V12.5786C27.6867 11.8403 27.4618 11.2613 27.0121 10.8414C26.5784 10.4216 25.976 10.2117 25.205 10.2117Z" fill="black"/>
<path d="M34.3923 19.6359V8.43117H37.9583V10.4723H38.1028C38.2474 10.1539 38.4241 9.85709 38.6329 9.58204C38.8417 9.30699 39.0907 9.06813 39.3798 8.86546C39.685 8.64831 40.0304 8.48183 40.4159 8.36602C40.8174 8.23574 41.2672 8.17059 41.7651 8.17059C42.3595 8.17059 42.9056 8.26469 43.4035 8.45288C43.9015 8.6266 44.3271 8.89441 44.6805 9.25632C45.0339 9.61823 45.307 10.0598 45.4997 10.5809C45.7085 11.1021 45.813 11.7028 45.813 12.3832V19.6359H42.247V12.8175C42.247 11.3699 41.5483 10.6461 40.1508 10.6461C39.8778 10.6461 39.6047 10.6822 39.3316 10.7546C39.0746 10.8125 38.8417 10.9139 38.6329 11.0586C38.4241 11.1889 38.2554 11.3554 38.1269 11.5581C38.0145 11.7607 37.9583 11.9996 37.9583 12.2746V19.6359H34.3923Z" fill="black"/>
<path d="M49.0249 19.6359V4.47913H59.6263V6.06429H51.0488V11.1672H58.9035V12.7524H51.0488V19.6359H49.0249Z" fill="black"/>
<path d="M68.4764 19.6358C67.609 19.6358 66.8219 19.4983 66.1152 19.2233C65.4245 18.9482 64.8302 18.5573 64.3322 18.0507C63.8503 17.5295 63.4809 16.9143 63.2239 16.2049C62.9669 15.4811 62.8384 14.6704 62.8384 13.7729C62.8384 12.8898 62.9669 12.0864 63.2239 11.3626C63.4809 10.6388 63.8503 10.0235 64.3322 9.51685C64.8302 8.9957 65.4245 8.5976 66.1152 8.32255C66.8219 8.0475 67.609 7.90997 68.4764 7.90997C69.3438 7.90997 70.1228 8.0475 70.8135 8.32255C71.5203 8.5976 72.1146 8.9957 72.5965 9.51685C73.0944 10.0235 73.4719 10.6388 73.7289 11.3626C73.9859 12.0864 74.1144 12.8898 74.1144 13.7729C74.1144 14.6704 73.9859 15.4811 73.7289 16.2049C73.4719 16.9143 73.0944 17.5295 72.5965 18.0507C72.1146 18.5573 71.5203 18.9482 70.8135 19.2233C70.1228 19.4983 69.3438 19.6358 68.4764 19.6358ZM68.4764 18.1375C69.5526 18.1375 70.42 17.848 71.0786 17.2689C71.7371 16.6899 72.0664 15.7924 72.0664 14.5763V12.9695C72.0664 11.7534 71.7371 10.8559 71.0786 10.2769C70.42 9.6978 69.5526 9.40828 68.4764 9.40828C67.4002 9.40828 66.5328 9.6978 65.8742 10.2769C65.2157 10.8559 64.8864 11.7534 64.8864 12.9695V14.5763C64.8864 15.7924 65.2157 16.6899 65.8742 17.2689C66.5328 17.848 67.4002 18.1375 68.4764 18.1375Z" fill="black"/>
<path d="M77.3262 18.1592H80.9644V9.90768H77.3262V8.43109H82.8919V11.254H83.0124C83.2694 10.3709 83.7513 9.6833 84.458 9.1911C85.1809 8.68443 86.0964 8.43109 87.2048 8.43109H88.9395V10.1683H86.6024C85.4941 10.1683 84.5946 10.4578 83.9039 11.0368C83.2292 11.6159 82.8919 12.3759 82.8919 13.3169V18.1592H87.7107V19.6358H77.3262V18.1592Z" fill="black"/>
<path d="M97.7896 19.6358C96.8901 19.6358 96.087 19.4983 95.3802 19.2233C94.6895 18.9337 94.1032 18.5356 93.6214 18.029C93.1395 17.5223 92.77 16.907 92.513 16.1832C92.2721 15.4594 92.1516 14.656 92.1516 13.7729C92.1516 12.8898 92.2801 12.0864 92.5371 11.3626C92.7941 10.6388 93.1636 10.0235 93.6454 9.51685C94.1273 8.9957 94.7136 8.5976 95.4043 8.32255C96.095 8.0475 96.8821 7.90997 97.7655 7.90997C98.9702 7.90997 99.9501 8.14883 100.705 8.62655C101.46 9.10427 102.014 9.72676 102.368 10.494L100.825 11.2323C100.601 10.6532 100.223 10.2045 99.6931 9.886C99.1791 9.56752 98.5366 9.40828 97.7655 9.40828C97.2033 9.40828 96.6974 9.49514 96.2476 9.66885C95.8139 9.82809 95.4445 10.0597 95.1393 10.3637C94.8341 10.6677 94.6012 11.0296 94.4406 11.4494C94.296 11.8693 94.2237 12.3253 94.2237 12.8175V14.7283C94.2237 15.2205 94.296 15.6765 94.4406 16.0964C94.6012 16.5162 94.8341 16.8781 95.1393 17.1821C95.4445 17.4861 95.822 17.725 96.2717 17.8987C96.7215 18.0579 97.2355 18.1375 97.8137 18.1375C98.649 18.1375 99.3397 17.9638 99.8858 17.6164C100.432 17.2689 100.866 16.7912 101.187 16.1832L102.56 17.0301C102.191 17.7829 101.613 18.4053 100.825 18.8975C100.054 19.3897 99.0425 19.6358 97.7896 19.6358Z" fill="black"/>
<path d="M111.603 19.6358C110.703 19.6358 109.892 19.4983 109.169 19.2233C108.463 18.9482 107.852 18.5573 107.338 18.0507C106.84 17.5295 106.455 16.9143 106.182 16.2049C105.909 15.4811 105.772 14.6777 105.772 13.7946C105.772 12.8971 105.909 12.0864 106.182 11.3626C106.471 10.6388 106.864 10.0235 107.362 9.51685C107.86 8.9957 108.455 8.5976 109.145 8.32255C109.852 8.0475 110.631 7.90997 111.483 7.90997C112.318 7.90997 113.073 8.0475 113.747 8.32255C114.438 8.5976 115.024 8.98123 115.506 9.47342C115.988 9.95114 116.358 10.523 116.615 11.1889C116.872 11.8548 117 12.5858 117 13.382V14.2072H107.796V14.7283C107.796 15.2205 107.884 15.6765 108.061 16.0964C108.238 16.5162 108.487 16.8781 108.808 17.1821C109.145 17.4861 109.547 17.725 110.013 17.8987C110.495 18.0579 111.025 18.1375 111.603 18.1375C112.438 18.1375 113.161 17.9638 113.771 17.6164C114.382 17.2689 114.848 16.7912 115.169 16.1832L116.59 17.0518C116.221 17.8046 115.603 18.4271 114.735 18.9193C113.884 19.397 112.84 19.6358 111.603 19.6358ZM111.483 9.34313C110.952 9.34313 110.463 9.42999 110.013 9.60371C109.563 9.77742 109.169 10.0163 108.832 10.3203C108.511 10.6243 108.254 10.9862 108.061 11.406C107.884 11.8114 107.796 12.2601 107.796 12.7523V12.9043H114.928V12.6655C114.928 12.1733 114.84 11.7245 114.663 11.3192C114.502 10.9138 114.269 10.5664 113.964 10.2769C113.675 9.97286 113.314 9.74123 112.88 9.58199C112.462 9.42275 111.997 9.34313 111.483 9.34313Z" fill="black"/>
</svg>
